<?xml version="1.0" encoding="UTF-8" standalone="no"?>
<svg width="185" height="185" viewBox="0 0 185 185" fill="none" version="1.1" id="svg208" sodipodi:docname="logo.svg" inkscape:version="1.2.2 (732a01da63, 2022-12-09)" inkscape:export-filename="logo.png" inkscape:export-xdpi="96" inkscape:export-ydpi="96"
   xmlns:inkscape="http://www.inkscape.org/namespaces/inkscape"
   xmlns:sodipodi="http://sodipodi.sourceforge.net/DTD/sodipodi-0.dtd"
   xmlns="http://www.w3.org/2000/svg"
   xmlns:svg="http://www.w3.org/2000/svg">
   <sodipodi:namedview id="namedview210" pagecolor="#ffffff" bordercolor="#000000" borderopacity="0.25" inkscape:showpageshadow="2" inkscape:pageopacity="0.0" inkscape:pagecheckerboard="0" inkscape:deskcolor="#d1d1d1" showgrid="false" inkscape:zoom="3.0806922" inkscape:cx="166.03411" inkscape:cy="131.46396" inkscape:window-width="1920" inkscape:window-height="1009" inkscape:window-x="-8" inkscape:window-y="-8" inkscape:window-maximized="1" inkscape:current-layer="svg208" />
   <path d="M0 92.5C0 41.4137 41.4137 0 92.5 0H135C162.614 0 185 22.3858 185 50V92.5C185 143.586 143.586 185 92.5 185V185C41.4137 185 0 143.586 0 92.5V92.5Z" fill="url(#paint0_linear_13_13)" id="path197" />
   <defs id="defs206">
      <linearGradient id="paint0_linear_13_13" x1="0" y1="92" x2="185" y2="92" gradientUnits="userSpaceOnUse">
         <stop stop-color="#FFDB6E" id="stop201" />
         <stop offset="1" stop-color="#FFBC5E" id="stop203" />
      </linearGradient>
   </defs>
   <g aria-label="M" id="text374" style="font-weight:bold;font-size:85.3333px;font-family:'Ink Free';-inkscape-font-specification:'Ink Free Bold';opacity:1;fill:#000000;fill-opacity:0.850534">
      <path d="m 160.42531,52.564024 c -6.4,0 -34.21866,28.415988 -50.85865,48.127976 10.24,-19.114655 25.25866,-43.861311 25.25866,-49.834642 0,-2.730665 -4.096,-6.314664 -8.02133,-6.314664 -6.05867,0 -37.461322,35.242652 -58.62398,62.122636 10.581329,-17.066655 22.442658,-34.986647 22.442658,-39.423979 0,-4.437331 -4.693332,-9.386662 -9.898663,-9.386662 -10.751995,0 -63.317307,14.079994 -63.317307,24.746656 0,3.498665 2.730666,6.399997 4.437332,6.399997 0.767999,0 1.279999,-0.597333 1.279999,-1.877332 0,-8.106664 51.797312,-24.405323 60.415975,-24.405323 1.109333,0 1.365333,0.170666 1.365333,0.938666 0,7.338663 -40.61865,61.525307 -40.61865,68.693307 0,4.52266 4.095998,8.10666 6.143997,8.10666 0.768,0 1.28,-0.42667 1.28,-1.45067 0,-8.10666 73.557306,-90.965291 76.202636,-90.965291 0.0853,0 0.17067,0.08533 0.17067,0.256 0,3.839999 -36.181323,58.879971 -36.181323,67.327971 0,4.52267 4.522665,8.10666 6.911997,8.10666 0.768,0 1.365336,-0.42666 1.365336,-1.45066 0,-5.80267 56.49064,-66.218641 61.35464,-66.218641 0.0853,0 0.0853,0.08533 0.0853,0.170667 0,3.583998 -40.95998,61.610644 -40.95998,70.143974 0,4.52266 4.52266,8.10666 6.912,8.10666 0.768,0 1.36533,-0.42667 1.36533,-1.45067 0,-10.06933 38.65598,-65.023969 38.65598,-74.154632 0,-2.730665 -3.49866,-6.314664 -7.16799,-6.314664 z" style="font-weight:normal;font-family:'Lil Johnny PERSONAL USE ONLY';-inkscape-font-specification:'Lil Johnny PERSONAL USE ONLY';opacity:0.99294118" id="path3112" />
   </g>
</svg>
